<svg width="36" height="36" viewBox="0 0 36 36" fill="none" xmlns="http://www.w3.org/2000/svg">
<g clip-path="url(#clip0_102_4)">
<path d="M7.89886 14.6475C8.60069 12.5242 9.95515 10.6767 11.769 9.3687C13.5829 8.06068 15.7636 7.35891 17.9999 7.3635C20.5349 7.3635 22.8269 8.2635 24.6269 9.7365L29.8649 4.5C26.6729 1.7175 22.5824 0 17.9999 0C10.9049 0 4.79686 4.047 1.85986 9.975L7.89886 14.6475Z" fill="#EA4335"/>
<path d="M24.06 27.0196C22.425 28.0741 20.349 28.6366 18 28.6366C15.7726 28.6412 13.6002 27.945 11.7903 26.6466C9.98047 25.3483 8.62488 23.5135 7.91547 21.4021L1.85547 26.0026C3.34234 29.012 5.64337 31.5442 8.4972 33.3114C11.351 35.0787 14.6433 36.0102 18 36.0001C22.3995 36.0001 26.6025 34.4356 29.751 31.5001L24.0615 27.0196H24.06Z" fill="#34A853"/>
<path d="M29.751 31.5C33.0435 28.4281 35.181 23.8561 35.181 18.0001C35.181 16.9351 35.0175 15.7906 34.773 14.7271H18V21.6826H27.654C27.1785 24.0211 25.899 25.8316 24.0615 27.0196L29.751 31.5Z" fill="#4A90E2"/>
<path d="M7.91567 21.4021C7.54871 20.3055 7.36228 19.1565 7.36367 18.0001C7.36367 16.8271 7.55117 15.7006 7.89917 14.6476L1.86017 9.9751C0.624741 12.4691 -0.0121199 15.2169 0.000174682 18.0001C0.000174682 20.8801 0.667675 23.5951 1.85567 26.0026L7.91567 21.4021Z" fill="#FBBC05"/>
</g>
<defs>
<clipPath id="clip0_102_4">
<rect width="36" height="36" fill="white"/>
</clipPath>
</defs>
</svg>
